<svg width="19" height="15" viewBox="0 0 19 15" fill="none" xmlns="http://www.w3.org/2000/svg">
<path d="M15.9969 0.871878C16.303 0.568409 16.7163 0.397619 17.1474 0.39643C17.5784 0.39524 17.9926 0.563748 18.3004 0.865522C18.6082 1.1673 18.7849 1.57809 18.7923 2.00909C18.7996 2.44009 18.637 2.85667 18.3397 3.16875L9.6072 14.0844C9.45711 14.246 9.27597 14.3758 9.07461 14.4658C8.87324 14.5559 8.65579 14.6044 8.43525 14.6085C8.2147 14.6125 7.9956 14.5721 7.79104 14.4896C7.58648 14.407 7.40066 14.2841 7.2447 14.1281L1.45876 8.34C1.29757 8.18981 1.16828 8.00868 1.07861 7.80743C0.988943 7.60618 0.940727 7.38894 0.93684 7.16865C0.932953 6.94836 0.973476 6.72955 1.05599 6.52526C1.13851 6.32097 1.26132 6.1354 1.41711 5.97961C1.5729 5.82382 1.75848 5.701 1.96276 5.61849C2.16705 5.53597 2.38586 5.49545 2.60615 5.49933C2.82644 5.50322 3.04369 5.55144 3.24494 5.64111C3.44619 5.73078 3.62731 5.86006 3.77751 6.02125L8.35813 10.5997L15.9553 0.920003C15.9689 0.903054 15.9835 0.88698 15.9991 0.871878H15.9969Z" fill="#717171"/>
</svg>
